<?xml version="1.0" encoding="utf-8"?>
<!-- Generator: Adobe Illustrator 18.1.1, SVG Export Plug-In . SVG Version: 6.00 Build 0)  -->
<!DOCTYPE svg PUBLIC "-//W3C//DTD SVG 1.1//EN" "http://www.w3.org/Graphics/SVG/1.1/DTD/svg11.dtd">
<svg version="1.1" id="Capa_1" xmlns="http://www.w3.org/2000/svg" xmlns:xlink="http://www.w3.org/1999/xlink" x="0px" y="0px"
	 viewBox="251 -246 512 512" enable-background="new 251 -246 512 512" xml:space="preserve">
<g>
	<path fill="#FFFFFF" d="M507-246c-141.4,0-256,114.6-256,256s114.6,256,256,256S763,151.4,763,10S648.4-246,507-246z M536.8,231.8
		L507,202l-29.8,29.8c-99.7-13.3-178.7-92.3-192-192L315,10l-29.8-29.8c13.3-99.7,92.3-178.7,192-192L507-182l29.8-29.8
		c99.7,13.3,178.7,92.3,192,192L699,10l29.8,29.8C715.4,139.5,636.4,218.4,536.8,231.8z M484.4-12.6l158.4-113.1L529.6,32.6
		L371.2,145.8L484.4-12.6z"/>
</g>
</svg>
